<?xml version="1.0" encoding="utf-8" ?>
<svg xmlns="http://www.w3.org/2000/svg" xmlns:xlink="http://www.w3.org/1999/xlink" width="24" height="24">
	<path transform="scale(0.046875 0.046875)" d="M398.472 251.183C392.675 245.911 385.845 241.557 379.527 236.92L350.222 215.215C339.068 207.062 340.733 196.876 340.758 184.505L340.752 144.789C340.753 132.418 342.906 119.705 333.755 109.852C319.684 94.6996 305.023 107.239 292.903 98.3211C280.364 89.0954 284.449 68.3034 299.99 65.9663C303.984 65.4176 310.434 65.8976 314.679 65.8896C337.932 65.8458 357.041 77.9437 368.655 97.5011C379.269 115.376 377.335 129.716 377.336 149.338L377.337 190.142C384.081 195.709 391.206 200.773 398.21 206.002L423.874 225.369C434.792 233.563 455.727 245.044 442.999 261.902C439.469 266.578 433.576 269.822 428.912 273.278L392.875 300.284C388.028 303.933 381.246 307.895 377.337 312.401L377.337 350.766C377.344 363.553 378.402 377.129 375.13 389.58C368.33 415.453 345.463 435.098 318.264 435.24C308.026 435.176 295.463 437.745 288.395 428.236C283.366 421.47 283.719 412.395 289.12 406.013C299.715 393.495 316.53 404.934 331.02 394.601C342.55 386.379 340.786 375.913 340.757 363.299L340.743 325.263C340.742 317.343 340.132 308.825 341.476 301.008C343.318 290.288 351.268 286.704 359.128 280.667C372.138 270.673 385.116 260.716 398.472 251.183Z"/>
	<path transform="scale(0.046875 0.046875)" d="M135.28 190.142L135.276 149.611C135.282 137.991 134.401 125.569 137.001 114.19C142.942 88.19 165.143 68.7396 191.691 65.9663C197.477 65.957 206.302 65.4068 211.78 66.2054C225.483 68.203 230.709 85.8071 221.927 95.7157C211.151 107.874 195.33 96.2419 181.403 106.54C169.538 115.314 170.897 126.28 170.918 139.336L170.931 179.596C170.93 201.888 173.63 206.648 155.55 220.261L142.788 229.739C133.279 236.823 123.982 244.163 114.412 251.183C118.489 254.754 122.969 257.905 127.299 261.159L152.479 279.942C170.928 293.87 170.915 292.404 170.929 316.802L170.916 355.858C170.904 369.222 168.337 384.518 180.058 394.056C193.103 404.671 205.135 395.842 216.505 401.266C231.486 408.411 230.499 429.162 212.751 435.24C206.604 435.844 191.575 435.434 185.499 434.613C159.547 431.109 137.48 406.955 134.745 381.262C133.968 373.958 134.321 366.412 134.319 359.068L134.323 327.915C134.327 322.76 134.613 317.545 134.325 312.401C131.48 309.1 127.364 306.757 123.928 304.077C107.603 291.345 87.0168 278.111 71.8366 264.849C63.5607 257.618 63.3178 244.732 71.2943 237.331C75.5249 233.406 80.6434 230.204 85.2959 226.795L109.625 208.849C117.635 202.961 126.572 194.624 135.28 190.142Z"/>
	<path transform="scale(0.046875 0.046875)" d="M237.562 342.075C214.212 341.487 198.353 321.14 207.005 298.895C210.337 290.325 217.375 282.736 222.941 275.532L264.079 221.486C267.974 216.313 272.11 211.432 273.072 204.825C273.637 200.942 272.87 183.71 273.744 182.218L274.648 182.091C297.339 182.156 312.874 201.599 305.661 223.397C303.461 230.047 298.771 235.351 294.553 240.785C281.483 257.622 269.098 274.998 255.98 291.792C251.317 297.762 243.707 306.18 240.881 312.977C237.394 321.363 241.159 341.857 237.562 342.075Z"/>
</svg>
