<svg xmlns="http://www.w3.org/2000/svg" xmlns:xlink="http://www.w3.org/1999/xlink" width="24" height="24">
  <!-- Define el gradiente -->
  <defs>
    <linearGradient id="gradient" x1="0%" y1="0%" x2="100%" y2="0%">
      <stop offset="0%" style="stop-color: hsl(185, 80%, 45%); stop-opacity: 1;" />
      <stop offset="100%" style="stop-color: hsl(338, 75%, 50%); stop-opacity: 1;" />
    </linearGradient>
  </defs>

  <!-- Path 1: Usa el gradiente -->
  <path fill="url(#gradient)" transform="scale(0.046875 0.046875)" d="M184.259 87.2293L184.259 62.7433L215.986 62.7433L215.986 87.2293C236.174 89.9494 253.33 97.3752 269.782 109.123C274.915 104.123 281.754 97.818 286.434 92.7536C291.876 99.3609 301.292 108.568 307.724 114.434C302.458 119.17 297.285 123.785 292.784 129.284L292.981 129.5L292.415 129.856L292.413 130.023C302.351 140.757 309.463 154.952 314.776 168.468C308.25 173.661 300.826 177.089 294.893 183.235C284.756 141.08 243.04 109.084 199.954 109.104C112.248 109.143 65.3702 219.486 131.228 280.531C134.714 283.762 138.636 286.43 142.379 289.344C162.415 304.942 166.316 319.225 166.256 342.631L222.875 342.631L233.258 342.631C233.118 317.923 239.965 296.233 264.309 285.183C265.947 293.649 269.45 300.131 272.372 308.029C268.489 308.669 265.753 310.97 263.082 313.784C248.941 328.677 260.987 352.982 254.195 365.135C249.565 373.421 237.504 371.102 229.662 371.101L169.68 371.106C164.531 371.109 152.368 372.423 148.1 369.619C135.354 361.244 156.733 325.86 127.727 308.029C121.963 312.078 115.778 316.276 109.558 319.554C102.716 314.391 96.9934 308.001 91.5061 301.473C95.7743 295.725 99.9475 289.857 104.278 284.166C92.4878 268.677 76.9072 241.962 78.8795 221.375L55.4322 221.375L55.4322 189.749L78.8795 189.749C83.4312 163.045 91.1275 150.276 106.701 130.023C102.015 124.737 96.7956 119.119 91.5061 114.434L112.841 92.7536C117.027 97.6499 124.228 105.034 129.143 109.123C147.075 97.5354 161.907 89.316 184.259 87.2293Z" />

  <!-- Path 2: Otro color sólido -->
  <path fill="url(#gradient)" transform="scale(0.046875 0.046875)" d="M215.986 246.058C187.77 269.746 139.176 251.44 136.194 213.623C134.114 187.24 152.18 163.83 179.064 161.751C191.351 160.11 205.019 164.644 214.435 172.516C210.894 176.78 206.528 180.334 203.212 184.8C184.183 172.022 158.335 178.63 153.343 202.205C147.217 231.132 178.424 250.012 203.212 233.365C203.872 234.222 204.578 235.022 205.305 235.823C208.537 239.466 211.771 243.527 215.986 246.058Z" />

  <!-- Path 3: También usa el gradiente -->
  <path fill="url(#gradient)" transform="scale(0.046875 0.046875)" d="M374.288 347.746C329.048 349.53 287.175 317.453 282.391 271.594C277.085 220.724 312.865 179.382 363.189 174.243C381.612 172.486 405.492 180.365 420.136 191.496C480.4 237.307 458.457 330.007 386.108 345.977C382.228 346.834 378.227 347.247 374.288 347.746ZM369.144 228.358C366.376 228.747 363.528 229.777 361.758 232.065C358.181 236.688 352.085 256.1 348.892 263.918L348.794 263.519C347.356 257.77 338.884 232.339 334.277 229.637C330.245 227.272 324.285 229.407 322.102 233.356C318.833 239.265 330.533 265.287 333.421 272.833C336.79 281.639 338.802 297.908 351.61 293.83C358.107 291.762 360.344 280.909 362.69 275.358C364.857 270.23 367.569 265.116 369.144 259.782C371.442 265.366 374.01 270.843 376.363 276.406C379.248 283.225 382.839 298.575 393.772 293.687C401.26 290.339 402.716 278.116 405.279 271.127C407.455 265.19 418.535 238.175 416.163 233.199C413.181 226.941 403.947 227.225 400.473 232.934C397.78 237.36 390.961 258.314 389.321 263.918C387.366 256.774 383.914 249.788 381.046 242.968C378.475 236.855 377.157 228.885 369.144 228.358Z" />

  <!-- Path 4 -->
  <path fill="url(#gradient)" transform="scale(0.046875 0.046875)" d="M247.775 234.999L247.775 234.999L247.775 234.999C250.568 240.475 235.805 237.323 231.323 237.725L230.943 237.761L230.943 220.373L214.435 220.373L214.435 202.377L225.463 202.345C227.265 202.335 229.165 202.104 230.943 202.377L230.943 189.749L230.943 186.156L248.618 186.156L248.618 202.377L264.873 202.377L264.873 220.373L248.618 220.373C248.642 223.91 249.38 232.201 247.775 234.999ZM245.623 236.875L245.623 236.875L245.623 236.875Z" />

  <!-- Path 5 -->
  <path fill="url(#gradient)" transform="scale(0.046875 0.046875)" d="M170.425 425.021C149.5 419.595 152.105 407.294 151.521 389.756L246.777 389.756C246.826 404.784 248.035 417.353 231.828 424.156C231 424.463 230.165 424.744 229.326 425.021C224.905 441.238 212.771 439.011 199.52 438.932C184.536 438.844 175.636 441.054 170.425 425.021Z" />
</svg>
